<svg width="23" height="20" viewBox="0 0 23 20" fill="none" xmlns="http://www.w3.org/2000/svg">
<path d="M22.994 9.98047C22.994 10.6836 22.395 11.2344 21.7161 11.2344H20.4382L20.4662 17.4922C20.4662 17.5977 20.4582 17.7031 20.4462 17.8086V18.4375C20.4462 19.3008 19.7314 20 18.8488 20H18.2099C18.166 20 18.122 20 18.0781 19.9961C18.0222 20 17.9663 20 17.9104 20H16.6125H15.6541C14.7716 20 14.0568 19.3008 14.0568 18.4375V17.5V15C14.0568 14.3086 13.4857 13.75 12.7789 13.75H10.2231C9.51626 13.75 8.94521 14.3086 8.94521 15V17.5V18.4375C8.94521 19.3008 8.23039 20 7.34785 20H6.38943H5.11554C5.05564 20 4.99574 19.9961 4.93584 19.9922C4.88792 19.9961 4.83999 20 4.79207 20H4.15313C3.27059 20 2.55577 19.3008 2.55577 18.4375V14.0625C2.55577 14.0273 2.55577 13.9883 2.55977 13.9531V11.2344H1.27789C0.559075 11.2344 0 10.6875 0 9.98047C0 9.62891 0.119802 9.31641 0.399339 9.04297L10.6384 0.3125C10.9179 0.0390625 11.2374 0 11.517 0C11.7965 0 12.116 0.078125 12.3556 0.273438L22.5547 9.04297C22.8742 9.31641 23.0339 9.62891 22.994 9.98047Z" fill="current"/>
</svg>
