<svg width="20" height="20" viewBox="0 0 20 20" fill="none" xmlns="http://www.w3.org/2000/svg">
<path d="M3.4375 0C2.91797 0 2.5 0.417969 2.5 0.9375C2.5 2.45703 3.41406 3.25781 4.02734 3.79297L4.07031 3.83203C4.70703 4.38672 5 4.68359 5 5.3125C5 5.83203 5.41797 6.25 5.9375 6.25C6.45703 6.25 6.875 5.83203 6.875 5.3125C6.875 3.79297 5.96094 2.99219 5.34766 2.45703L5.30469 2.41797C4.66797 1.86328 4.375 1.56641 4.375 0.9375C4.375 0.417969 3.95703 0 3.4375 0ZM1.25 7.5C0.558594 7.5 0 8.05859 0 8.75V16.25C0 18.3203 1.67969 20 3.75 20H11.25C13.3203 20 15 18.3203 15 16.25H15.625C18.043 16.25 20 14.293 20 11.875C20 9.45703 18.043 7.5 15.625 7.5H13.75H1.25ZM15 10H15.625C16.6602 10 17.5 10.8398 17.5 11.875C17.5 12.9102 16.6602 13.75 15.625 13.75H15V10ZM8.75 0.9375C8.75 0.417969 8.33203 0 7.8125 0C7.29297 0 6.875 0.417969 6.875 0.9375C6.875 2.45703 7.78906 3.25781 8.40234 3.79297L8.44531 3.83203C9.08203 4.38672 9.375 4.68359 9.375 5.3125C9.375 5.83203 9.79297 6.25 10.3125 6.25C10.832 6.25 11.25 5.83203 11.25 5.3125C11.25 3.79297 10.3359 2.99219 9.72266 2.45703L9.67969 2.41797C9.04297 1.86328 8.75 1.56641 8.75 0.9375Z" fill="current"/>
</svg>
