<svg width="24" height="18" viewBox="0 0 24 18" fill="none" xmlns="http://www.w3.org/2000/svg">
<path d="M21.2103 0H1.93259C0.863839 0 0 0.863839 0 1.92857V16.0714C0 17.1362 0.863839 18 1.93259 18H21.2103C22.279 18 23.1429 17.1362 23.1429 16.0714V1.92857C23.1429 0.863839 22.279 0 21.2103 0ZM2.17366 1.92857H20.9692C21.1018 1.92857 21.2103 2.03705 21.2103 2.16964V3.85714H1.93259V2.16964C1.93259 2.03705 2.04107 1.92857 2.17366 1.92857ZM20.9692 16.0714H2.17366C2.04107 16.0714 1.93259 15.9629 1.93259 15.8304V9H21.2103V15.8304C21.2103 15.9629 21.1018 16.0714 20.9692 16.0714ZM7.71429 12.0536V13.6607C7.71429 13.9259 7.49732 14.1429 7.23214 14.1429H4.33929C4.07411 14.1429 3.85714 13.9259 3.85714 13.6607V12.0536C3.85714 11.7884 4.07411 11.5714 4.33929 11.5714H7.23214C7.49732 11.5714 7.71429 11.7884 7.71429 12.0536ZM15.4286 12.0536V13.6607C15.4286 13.9259 15.2116 14.1429 14.9464 14.1429H9.48214C9.21696 14.1429 9 13.9259 9 13.6607V12.0536C9 11.7884 9.21696 11.5714 9.48214 11.5714H14.9464C15.2116 11.5714 15.4286 11.7884 15.4286 12.0536Z" fill="#536173"/>
</svg>
