<svg width="9" height="9" viewBox="0 0 9 9" fill="none" xmlns="http://www.w3.org/2000/svg">
<path fill-rule="evenodd" clip-rule="evenodd" d="M6.83172 0.0826241C6.85784 0.0564335 6.88888 0.035654 6.92304 0.021476C6.95721 0.00729801 6.99384 0 7.03083 0C7.06783 0 7.10445 0.00729801 7.13862 0.021476C7.17279 0.035654 7.20383 0.0564335 7.22995 0.0826241L8.91738 1.77005C8.94357 1.79617 8.96435 1.82721 8.97852 1.86138C8.9927 1.89555 9 1.93217 9 1.96917C9 2.00616 8.9927 2.04279 8.97852 2.07696C8.96435 2.11112 8.94357 2.14216 8.91738 2.16828L3.29262 7.79304C3.26563 7.81984 3.23348 7.84089 3.19813 7.85491L0.385749 8.97986C0.33464 9.00032 0.278651 9.00533 0.224723 8.99426C0.170795 8.9832 0.1213 8.95655 0.0823727 8.91763C0.0434458 8.8787 0.0167993 8.8292 0.00573689 8.77528C-0.00532557 8.72135 -0.00031757 8.66536 0.02014 8.61425L1.14509 5.80187C1.15911 5.76652 1.18016 5.73437 1.20696 5.70738L6.83172 0.0826241V0.0826241ZM6.30355 1.40669L7.59331 2.69645L8.32059 1.96917L7.03083 0.679411L6.30355 1.40669ZM7.19564 3.09412L5.90588 1.80436L2.24979 5.46045V5.62526H2.53103C2.60562 5.62526 2.67715 5.65489 2.7299 5.70763C2.78264 5.76037 2.81227 5.83191 2.81227 5.90649V6.18773H3.09351C3.16809 6.18773 3.23963 6.21736 3.29237 6.2701C3.34511 6.32285 3.37474 6.39438 3.37474 6.46897V6.75021H3.53955L7.19564 3.09412V3.09412ZM1.70532 6.00493L1.64569 6.06455L0.786231 8.21377L2.93545 7.35431L2.99507 7.29468C2.94142 7.27464 2.89517 7.23869 2.86251 7.19165C2.82984 7.14461 2.81231 7.08872 2.81227 7.03144V6.75021H2.53103C2.45644 6.75021 2.38491 6.72058 2.33217 6.66783C2.27942 6.61509 2.24979 6.54356 2.24979 6.46897V6.18773H1.96855C1.91128 6.18769 1.85539 6.17016 1.80835 6.13749C1.76131 6.10483 1.72536 6.05858 1.70532 6.00493V6.00493Z" fill="#868686"/>
</svg>
