<svg width="34" height="36" viewBox="0 0 30 28" fill="none" xmlns="http://www.w3.org/2000/svg">
<path d="M28.9886 0.0282854C28.754 -0.0275139 28.5071 0.00260327 28.2927 0.113178L26.769 0.874112L25.2323 0.105742C25.0946 0.0369166 24.9428 0.00108526 24.7889 0.00108526C24.635 0.00108526 24.4832 0.0369166 24.3456 0.105742L22.7896 0.874732L21.2541 0.105742C21.116 0.0364134 20.9637 0.000309106 20.8092 0.000309106C20.6547 0.000309106 20.5023 0.0364134 20.3643 0.105742L18.8375 0.872253L17.3224 0.107601C17.1847 0.0377955 17.0326 0.00110905 16.8782 0.00046358C16.7239 -0.000181893 16.5715 0.0352314 16.4332 0.103883L14.8717 0.875351L13.3349 0.105122C13.197 0.0363298 13.0451 0.00052102 12.891 0.00052102C12.7369 0.00052102 12.5849 0.0363298 12.447 0.105122L10.9059 0.874112L9.36668 0.105122C9.16825 0.00565431 8.94218 -0.0243492 8.72467 0.0199161C8.50716 0.0641815 8.3108 0.180155 8.16703 0.349266C8.01207 0.53396 7.92851 0.768124 7.93156 1.0092V15.8635L7.93466 15.8666H19.8289C20.3548 15.8666 20.8591 16.0755 21.231 16.4474C21.6029 16.8193 21.8118 17.3236 21.8118 17.8495V24.2908C21.8118 26.2074 23.861 27.7609 25.7776 27.7609H26.5212C27.3757 27.7609 28.1953 27.4214 28.7996 26.8171C29.4039 26.2128 29.7433 25.3932 29.7433 24.5387V0.991846C29.7435 0.769941 29.6693 0.554392 29.5324 0.379698C29.3956 0.205004 29.2041 0.081265 28.9886 0.0282854ZM24.7861 12.8892H16.8855C16.3502 12.8892 15.8879 12.4777 15.8644 11.9424C15.8583 11.8086 15.8795 11.6749 15.9265 11.5495C15.9736 11.4241 16.0455 11.3095 16.1381 11.2127C16.2306 11.1159 16.3418 11.0388 16.4649 10.9862C16.5881 10.9335 16.7206 10.9063 16.8546 10.9063H24.7551C25.2905 10.9063 25.7528 11.3177 25.7763 11.8531C25.7824 11.9869 25.7612 12.1206 25.7142 12.246C25.6671 12.3714 25.5952 12.4859 25.5026 12.5828C25.4101 12.6796 25.2989 12.7567 25.1757 12.8093C25.0526 12.862 24.9201 12.8892 24.7861 12.8892ZM24.7861 7.93196H12.9198C12.3844 7.93196 11.9221 7.52051 11.8986 6.98513C11.8926 6.85133 11.9137 6.7177 11.9607 6.5923C12.0078 6.46689 12.0797 6.35232 12.1723 6.2555C12.2648 6.15867 12.376 6.0816 12.4992 6.02894C12.6223 5.97627 12.7548 5.9491 12.8888 5.94907H24.7551C25.2905 5.94907 25.7528 6.36052 25.7763 6.8959C25.7824 7.0297 25.7612 7.16333 25.7142 7.28873C25.6671 7.41414 25.5952 7.52871 25.5026 7.62553C25.4101 7.72236 25.2989 7.79943 25.1757 7.85209C25.0526 7.90476 24.9201 7.93193 24.7861 7.93196Z" fill="current"/>
<path d="M19.8289 24.2908V18.8379C19.8289 18.5749 19.7244 18.3228 19.5385 18.1368C19.3526 17.9509 19.1004 17.8464 18.8375 17.8464H1.98289C1.45696 17.8481 0.953088 18.0579 0.58149 18.4301C0.209891 18.8023 0.000816656 19.3065 0 19.8324C0 22.9648 0.358159 24.2673 0.896018 25.2587C1.80877 26.9423 3.46138 27.7609 5.94867 27.7609H21.1723C21.2212 27.7609 21.269 27.7465 21.3098 27.7194C21.3505 27.6923 21.3823 27.6538 21.4012 27.6087C21.42 27.5636 21.4251 27.5139 21.4159 27.4659C21.4066 27.4179 21.3833 27.3737 21.3489 27.3389C20.7627 26.7509 19.8289 25.9639 19.8289 24.2908Z" fill="current"/>
</svg>
