<svg width="36" height="36" viewBox="0 0 36 36" fill="none" xmlns="http://www.w3.org/2000/svg">
<path d="M17.3049 10.2186C17.0982 8.95034 16.5093 7.78097 15.5937 6.84986C14.0816 5.30418 13.1392 3.33873 12.8783 1.20495L12.8781 1.20297C12.8331 0.846915 13.1265 0.5 13.5281 0.5H14.6813C15.0135 0.5 15.2758 0.735974 15.3181 1.03927C15.5299 2.56713 16.2261 3.97299 17.3124 5.08192L17.3134 5.08297C18.6569 6.44649 19.4946 8.17459 19.7474 10.0511L19.7476 10.0522C19.7951 10.3993 19.5039 10.75 19.0969 10.75H17.9367C17.6211 10.75 17.3565 10.5213 17.3049 10.2186ZM17.3049 10.2186C17.305 10.2192 17.3051 10.2199 17.3052 10.2205L16.8117 10.3008L17.3047 10.2175C17.3048 10.2179 17.3049 10.2182 17.3049 10.2186ZM11.8724 10.0511L11.8726 10.0522C11.9201 10.3993 11.6289 10.75 11.2219 10.75H10.0617C9.74613 10.75 9.48162 10.5214 9.42994 10.2187C9.22327 8.95042 8.63434 7.781 7.71865 6.84986C6.20705 5.30461 5.26473 3.33982 5.00355 1.20673C4.9622 0.842278 5.25737 0.5 5.65313 0.5H6.80625C7.13835 0.5 7.40065 0.735817 7.44302 1.03896C7.65482 2.56694 8.35098 3.97292 9.43735 5.08192L9.43838 5.08297C10.7819 6.44649 11.6196 8.17459 11.8724 10.0511ZM27 28.75H26.5V29.25C26.5 32.7004 23.7004 35.5 20.25 35.5H6.75C3.29958 35.5 0.5 32.7004 0.5 29.25V15.75C0.5 14.7816 1.28161 14 2.25 14H28.125C32.1942 14 35.5 17.3058 35.5 21.375C35.5 25.4442 32.1942 28.75 28.125 28.75H27ZM26.5 24.75V25.25H27H28.125C30.2644 25.25 32 23.5144 32 21.375C32 19.2356 30.2644 17.5 28.125 17.5H27H26.5V18V24.75Z" fill="white" stroke="#444444"/>
<circle cx="13.5" cy="24.5" r="3.5" fill="#444444"/>
</svg>
