<svg width="12" height="10" viewBox="0 0 12 10" fill="none" xmlns="http://www.w3.org/2000/svg">
<path d="M2.99962 0C3.05863 0 3.11765 0.0153415 3.17137 0.0460915C3.20522 0.0653915 3.23697 0.0907916 3.26532 0.122292L5.8903 3.03924C6.03677 3.20196 6.03677 3.46578 5.8903 3.6285C5.74386 3.79122 5.50643 3.79122 5.35998 3.6285L3.37336 1.42108V9.58333C3.37336 9.81342 3.20547 10 2.99837 10C2.79127 10 2.62338 9.81342 2.62338 9.58333V1.42484L0.64015 3.62848C0.493709 3.7912 0.256272 3.7912 0.109831 3.62848C-0.0366103 3.46576 -0.0366103 3.20194 0.109831 3.03922L2.71101 0.14895C2.76604 0.0761034 2.8431 0.0244834 2.93079 0.00674923L2.99962 0ZM9.00159 0C9.20874 0 9.37658 0.18655 9.37658 0.416667V8.57517L11.3598 6.3715C11.5063 6.20883 11.7437 6.20883 11.8901 6.3715C12.0366 6.53425 12.0366 6.79808 11.8901 6.96075L9.28899 9.85108C9.23391 9.92388 9.15685 9.97551 9.06917 9.99325L9.00032 10C8.94137 10 8.88235 9.98467 8.82857 9.95392L8.77957 9.9204L8.72718 9.86917L6.10967 6.96075C5.96323 6.79808 5.96323 6.53425 6.10967 6.3715C6.25614 6.20875 6.49358 6.20875 6.63998 6.3715L8.6266 8.57892V0.416667C8.6266 0.18655 8.79452 0 9.00159 0V0Z" fill="#AFAFAF"/>
</svg>
