<svg width="20" height="20" viewBox="0 0 271 271" fill="none" xmlns="http://www.w3.org/2000/svg">
<path d="M213.638 67.8629C211.38 61.2008 205.057 56.4583 197.604 56.4583H73.3958C65.9433 56.4583 59.7329 61.2008 57.3617 67.8629L33.875 135.5V225.833C33.875 232.044 38.9563 237.125 45.1667 237.125H56.4583C62.6688 237.125 67.75 232.044 67.75 225.833V214.542H203.25V225.833C203.25 232.044 208.331 237.125 214.542 237.125H225.833C232.044 237.125 237.125 232.044 237.125 225.833V135.5L213.638 67.8629ZM73.3958 180.667C64.0238 180.667 56.4583 173.101 56.4583 163.729C56.4583 154.357 64.0238 146.792 73.3958 146.792C82.7679 146.792 90.3333 154.357 90.3333 163.729C90.3333 173.101 82.7679 180.667 73.3958 180.667ZM197.604 180.667C188.232 180.667 180.667 173.101 180.667 163.729C180.667 154.357 188.232 146.792 197.604 146.792C206.976 146.792 214.542 154.357 214.542 163.729C214.542 173.101 206.976 180.667 197.604 180.667ZM56.4583 124.208L73.3958 73.3958H197.604L214.542 124.208H56.4583Z" fill="current"/>
</svg>
