<svg width="10" height="19" viewBox="0 0 10 19" fill="none" xmlns="http://www.w3.org/2000/svg">
<path d="M6.14796 3.93478H3.85204V2.7299H2L5 0L8 2.7299H6.14796V3.93478Z" fill="#536173"/>
<path fill-rule="evenodd" clip-rule="evenodd" d="M3.33781 5.56625C3.67125 5.19775 4.31253 5.00657 4.93746 5.00017C5.56244 4.99376 6.17113 5.17233 6.43923 5.54325L6.30696 6.41654L6.87616 6.41241L6.38367 8.19226C6.3382 9.30012 6.68143 10.1765 7.19565 10.9948C7.55969 11.574 8.01362 12.1141 8.47051 12.6576C8.7996 13.0491 9.13023 13.4425 9.42991 13.8536C9.81386 14.3803 9.94511 15.0018 9.8552 15.599C9.76519 16.1961 9.46766 16.7682 9.02718 17.267C8.14621 18.2646 6.68295 18.9872 4.97487 18.9998C3.17281 19.0132 1.69552 18.3138 0.824093 17.3242C0.388366 16.8294 0.102408 16.2577 0.0222033 15.6622C-0.0580666 15.0666 0.077991 14.4498 0.451851 13.9206C0.74428 13.5066 1.06743 13.1098 1.38904 12.7149C1.83837 12.1632 2.28471 11.6152 2.64009 11.0291C3.1318 10.2182 3.45812 9.35358 3.41071 8.27402L2.99545 6.8563L2.87398 6.44165L3.48315 6.43717L3.33781 5.56625ZM5.85344 7.83109L6.06631 7.06184L3.69389 7.07927L3.92027 7.85234C4.51848 8.17074 5.12571 8.19856 5.85344 7.83109ZM6.6933 11.3526C6.19406 10.5581 5.82392 9.6437 5.78284 8.55963C5.16662 8.78714 4.56728 8.7848 4.01354 8.59001C3.98547 9.66667 3.63144 10.5808 3.14784 11.3783C2.93721 11.7256 2.70348 12.0537 2.46148 12.3699C3.10874 12.208 3.94605 12.1068 4.85719 12.1068C5.87469 12.1068 6.80061 12.2329 7.47194 12.429C7.19795 12.0872 6.93165 11.7319 6.6933 11.3526ZM8.63194 13.8303C8.50151 13.667 8.36542 13.5032 8.22716 13.3384C8.06753 13.4344 7.84612 13.5325 7.57737 13.6174C6.89938 13.8317 5.92883 13.9715 4.85719 13.9715C3.78557 13.9715 2.81499 13.8317 2.137 13.6174C1.93843 13.5547 1.76602 13.4846 1.62462 13.4137C1.48721 13.5829 1.35193 13.7513 1.22282 13.919C1.43213 14.0415 1.68035 14.1444 1.96504 14.2344C2.7234 14.4741 3.73706 14.6151 4.85715 14.6151C5.97724 14.6151 6.99087 14.4741 7.74926 14.2344C8.10026 14.1234 8.39682 13.9932 8.63194 13.8303ZM3.56432 15.8002C3.51928 15.7959 3.46352 15.7894 3.39704 15.7809C3.3327 15.7701 3.25978 15.7551 3.17829 15.7358C3.22547 15.783 3.26407 15.8259 3.2941 15.8645C3.32627 15.901 3.35093 15.9331 3.36809 15.961C3.38953 15.9932 3.40454 16.0232 3.41312 16.0511C3.41956 16.0747 3.42599 16.124 3.43242 16.1991C3.441 16.2741 3.44851 16.3642 3.45494 16.4693C3.46138 16.5722 3.46674 16.6827 3.47103 16.8006C3.47532 16.9186 3.47853 17.0312 3.48068 17.1384C3.48282 17.2456 3.48389 17.34 3.48389 17.4215C3.48604 17.503 3.48604 17.5598 3.48389 17.592C3.47961 17.6306 3.46995 17.6735 3.45494 17.7207C3.44207 17.7614 3.4217 17.8097 3.39382 17.8654C3.36809 17.919 3.3327 17.978 3.28766 18.0423C3.35629 18.0295 3.41741 18.0188 3.47103 18.0102C3.52679 18.0016 3.5729 17.9952 3.60935 17.9909C3.65225 17.9844 3.69085 17.9801 3.72516 17.978C3.75519 17.9759 3.78736 17.9737 3.82167 17.9716C3.85169 17.9694 3.88494 17.9684 3.92139 17.9684C3.95785 17.9662 3.99538 17.9651 4.03399 17.9651C4.00182 17.8901 3.97394 17.8225 3.95035 17.7625C3.9289 17.7003 3.9096 17.6477 3.89244 17.6048C3.87314 17.5534 3.85706 17.5083 3.84419 17.4697C3.83347 17.4311 3.82489 17.3882 3.81845 17.3411C3.81416 17.3003 3.81202 17.2542 3.81202 17.2027C3.81416 17.1491 3.82274 17.0912 3.83775 17.029C3.94927 17.0526 4.05436 17.0633 4.15301 17.0612C4.25381 17.0569 4.34174 17.0483 4.4168 17.0354C4.50473 17.0204 4.58622 16.999 4.66128 16.9711C4.75565 16.9325 4.84143 16.8821 4.91864 16.8199C4.99584 16.7577 5.06018 16.6902 5.11165 16.6173C5.16312 16.5422 5.20065 16.4661 5.22424 16.3889C5.24783 16.3095 5.25427 16.2355 5.24355 16.1669C5.23282 16.0961 5.20494 16.0339 5.15991 15.9803C5.11701 15.9267 5.06554 15.8817 5.00549 15.8452C4.94544 15.8066 4.88111 15.7766 4.81248 15.7551C4.74385 15.7315 4.67844 15.7165 4.61625 15.7101C4.55405 15.7036 4.48114 15.7047 4.3975 15.7133C4.31386 15.7219 4.22915 15.7326 4.14336 15.7455C4.05758 15.7583 3.97608 15.7712 3.89888 15.7841C3.82167 15.7969 3.75733 15.8044 3.70586 15.8066C3.66511 15.8087 3.61793 15.8066 3.56432 15.8002ZM3.84097 16.4371C3.84097 16.4135 3.84204 16.391 3.84419 16.3695C3.84633 16.3481 3.84955 16.3245 3.85384 16.2988C3.85813 16.2752 3.86349 16.2484 3.86992 16.2184C3.87636 16.1883 3.88494 16.154 3.89566 16.1154C3.9986 16.0597 4.08546 16.0211 4.15623 15.9996C4.227 15.9782 4.28598 15.9664 4.33316 15.9642C4.38677 15.9621 4.43074 15.9685 4.46505 15.9835C4.5058 16.0071 4.54011 16.0521 4.56799 16.1186C4.59802 16.1851 4.61196 16.258 4.60981 16.3374C4.60767 16.4167 4.5873 16.4939 4.54869 16.569C4.51009 16.6441 4.44361 16.702 4.34924 16.7427C4.27847 16.7706 4.21092 16.7856 4.14658 16.7877C4.1187 16.7877 4.09082 16.7856 4.06294 16.7813C4.03506 16.777 4.00718 16.7684 3.9793 16.7556C3.95356 16.7427 3.9289 16.7245 3.90531 16.7009C3.88386 16.6773 3.86563 16.6473 3.85062 16.6108C3.84419 16.54 3.84097 16.4821 3.84097 16.4371ZM5.45586 15.8516C5.35721 15.8495 5.23282 15.8463 5.0827 15.842C5.13417 15.872 5.17706 15.8988 5.21138 15.9224C5.24569 15.946 5.2725 15.9664 5.2918 15.9835C5.31539 16.005 5.33362 16.0232 5.34649 16.0382C5.37222 16.0811 5.39474 16.1787 5.41404 16.3309C5.43334 16.4832 5.43763 16.6827 5.42691 16.9293C5.42905 17.0279 5.42905 17.1352 5.42691 17.251C5.42476 17.3496 5.42048 17.4644 5.41404 17.5952C5.40975 17.7239 5.40225 17.8611 5.39152 18.007C5.51377 17.9919 5.62529 17.9801 5.72608 17.9716C5.82902 17.963 5.91802 17.9566 5.99309 17.9523C6.07887 17.9458 6.15715 17.9426 6.22792 17.9426C6.29655 17.9405 6.37161 17.9383 6.4531 17.9362C6.52173 17.934 6.60108 17.933 6.69116 17.933C6.78123 17.9308 6.87666 17.9287 6.97746 17.9265C6.99247 17.8193 7.00427 17.7314 7.01285 17.6627C7.02357 17.592 7.03108 17.5362 7.03537 17.4955C7.0418 17.4483 7.04502 17.4118 7.04502 17.3861L7.05467 17.2832C7.05896 17.2445 7.06217 17.1942 7.06432 17.132C7.06861 17.0676 7.07504 16.9872 7.08362 16.8907C7.03215 17.0065 6.97961 17.1051 6.92599 17.1866C6.87452 17.2681 6.82734 17.3357 6.78445 17.3893C6.73298 17.4515 6.68472 17.503 6.63969 17.5437C6.57964 17.593 6.51101 17.6284 6.4338 17.6499C6.3566 17.6713 6.28046 17.6842 6.2054 17.6885C6.13249 17.6906 6.06707 17.6863 6.00917 17.6756C5.95127 17.6627 5.91266 17.6467 5.89336 17.6274C5.87835 17.6081 5.86548 17.5759 5.85476 17.5309C5.84404 17.4923 5.83546 17.4376 5.82902 17.3668C5.82473 17.2939 5.82581 17.1984 5.83224 17.0805C5.88586 17.0698 5.92982 17.0644 5.96413 17.0644C6.00059 17.0644 6.03062 17.0655 6.05421 17.0676C6.07994 17.0719 6.10032 17.0762 6.11533 17.0805C6.1282 17.0912 6.14321 17.1105 6.16037 17.1384C6.17538 17.162 6.19253 17.1974 6.21184 17.2445C6.23328 17.2896 6.25687 17.3518 6.28261 17.4311C6.27832 17.3153 6.2751 17.2199 6.27296 17.1448V16.9615V16.8392C6.27081 16.8113 6.26974 16.7738 6.26974 16.7266C6.2676 16.6859 6.26652 16.6333 6.26652 16.569C6.26652 16.5025 6.26438 16.4199 6.26009 16.3213C6.22792 16.4114 6.20004 16.4821 6.17645 16.5336C6.155 16.5851 6.13785 16.6258 6.12498 16.6559C6.10782 16.6902 6.09495 16.7138 6.08638 16.7266C6.07565 16.7373 6.0585 16.7491 6.03491 16.762C6.01346 16.7727 5.98451 16.7856 5.94805 16.8006C5.91374 16.8156 5.86763 16.8317 5.80972 16.8489C5.82044 16.7266 5.8301 16.6269 5.83867 16.5497C5.8494 16.4725 5.86012 16.4114 5.87084 16.3663C5.88157 16.3127 5.89336 16.273 5.90623 16.2473C5.92124 16.2173 5.93518 16.1905 5.94805 16.1669C5.96306 16.1411 5.98451 16.1186 6.01239 16.0993C6.04027 16.08 6.07887 16.065 6.1282 16.0543C6.17752 16.0436 6.24615 16.0361 6.33408 16.0318C6.40056 16.0339 6.46383 16.0511 6.52388 16.0832C6.57535 16.1111 6.62575 16.1551 6.67507 16.2151C6.72654 16.2752 6.76729 16.3631 6.79731 16.4789C6.80804 16.4425 6.81554 16.4071 6.81983 16.3728C6.82412 16.3385 6.82841 16.3063 6.8327 16.2763C6.83699 16.2419 6.84021 16.2098 6.84235 16.1798C6.8445 16.1497 6.84557 16.1165 6.84557 16.08C6.84557 16.05 6.84342 16.0157 6.83913 15.9771C6.83699 15.9363 6.83377 15.8945 6.82948 15.8516H5.70035H5.45586Z" fill="#536173"/>
</svg>
