<svg width="27" height="36" viewBox="0 0 27 36" fill="none" xmlns="http://www.w3.org/2000/svg">
<path d="M13.466 0.000420303C11.7617 0.0166064 10.0127 0.499667 9.1033 1.4308L9.49969 3.63142L7.83828 3.64274L8.16958 4.69048L9.30211 8.27275C9.43142 11.0006 8.54144 13.1852 7.20039 15.2343C5.5374 17.7751 3.14416 20.033 1.23234 22.5404C0.212707 23.8777 -0.158367 25.4362 0.0605555 26.9411C0.279301 28.4457 1.0592 29.8903 2.24757 31.1405C4.62422 33.6412 8.65329 35.4085 13.5681 35.3745C18.2266 35.3427 22.2174 33.5169 24.62 30.9962C25.8214 29.7357 26.6329 28.2902 26.8783 26.7813C27.1235 25.2724 26.7656 23.7021 25.7184 22.3712C23.7663 19.89 21.3329 17.6654 19.6249 15.1475C18.2224 13.0799 17.2863 10.8655 17.4103 8.06616L18.7535 3.56885L17.2011 3.5793L17.5619 1.37267C16.8307 0.435444 15.1706 -0.0157658 13.466 0.000420303ZM16.5448 5.20983L15.9642 7.15356C13.9795 8.08209 12.3234 8.01177 10.6919 7.20725L10.0744 5.25386L16.5448 5.20983ZM15.7717 8.99443C15.8837 11.7336 16.8932 14.0442 18.2548 16.0516C18.9049 17.01 19.6311 17.9079 20.3784 18.7714C18.5475 18.2759 16.0222 17.9573 13.2471 17.9573C10.7622 17.9573 8.47856 18.2131 6.71324 18.6221C7.37327 17.8233 8.01072 16.9942 8.58519 16.1165C9.90411 14.1014 10.8697 11.7917 10.9462 9.07118C12.4565 9.56338 14.0911 9.5693 15.7717 8.99443ZM22.4381 21.0693C22.8152 21.4857 23.1864 21.8997 23.5421 22.3124C22.9009 22.724 22.092 23.053 21.1348 23.3333C19.0664 23.939 16.3019 24.2952 13.247 24.2952C10.1922 24.2952 7.42761 23.9389 5.35931 23.3333C4.58285 23.106 3.90589 22.8458 3.33504 22.5364C3.68715 22.1126 4.0561 21.6871 4.43088 21.2596C4.81651 21.4389 5.28672 21.6159 5.82829 21.7744C7.6774 22.3157 10.3245 22.669 13.2471 22.669C16.1698 22.669 18.8168 22.3157 20.6659 21.7744C21.3989 21.5598 22.0028 21.3119 22.4381 21.0693Z" fill="black"/>
<path d="M11.7915 27.0135C11.9582 27.053 12.1073 27.0837 12.2389 27.1056C12.3749 27.1232 12.489 27.1363 12.5811 27.1451C12.6908 27.1583 12.7873 27.1626 12.8706 27.1583C12.9759 27.1539 13.1075 27.1385 13.2654 27.1122C13.4234 27.0859 13.5901 27.0596 13.7655 27.0332C13.941 27.0069 14.1143 26.985 14.2854 26.9674C14.4565 26.9499 14.6056 26.9477 14.7328 26.9609C14.86 26.974 14.9938 27.0047 15.1342 27.053C15.2746 27.0968 15.4062 27.1583 15.529 27.2372C15.6519 27.3118 15.7571 27.4039 15.8449 27.5136C15.937 27.6233 15.994 27.7505 16.016 27.8952C16.0379 28.0356 16.0247 28.187 15.9765 28.3493C15.9282 28.5072 15.8515 28.6629 15.7462 28.8165C15.6409 28.9656 15.5093 29.1038 15.3514 29.231C15.1934 29.3582 15.018 29.4613 14.8249 29.5403C14.6714 29.5973 14.5047 29.6412 14.3249 29.6719C14.1713 29.6982 13.9915 29.7158 13.7853 29.7245C13.5835 29.7289 13.3685 29.707 13.1404 29.6587C13.1097 29.7859 13.0922 29.9044 13.0878 30.0141C13.0878 30.1193 13.0922 30.2137 13.1009 30.297C13.1141 30.3935 13.1317 30.4812 13.1536 30.5602C13.1799 30.6392 13.2128 30.7313 13.2523 30.8366C13.2874 30.9243 13.3269 31.0318 13.3707 31.159C13.419 31.2818 13.476 31.42 13.5418 31.5736C13.4629 31.5736 13.3861 31.5757 13.3115 31.5801C13.2369 31.5801 13.1689 31.5823 13.1075 31.5867C13.0373 31.5911 12.9715 31.5955 12.9101 31.5999C12.8399 31.6043 12.761 31.613 12.6732 31.6262C12.5987 31.635 12.5043 31.6481 12.3903 31.6657C12.2806 31.6832 12.1556 31.7052 12.0152 31.7315C12.1073 31.5999 12.1797 31.4792 12.2324 31.3696C12.2894 31.2555 12.3311 31.1568 12.3574 31.0735C12.3881 30.977 12.4078 30.8892 12.4166 30.8103C12.421 30.7445 12.421 30.6282 12.4166 30.4615C12.4166 30.2948 12.4144 30.1018 12.41 29.8824C12.4056 29.6631 12.3991 29.4328 12.3903 29.1915C12.3815 28.9503 12.3705 28.7243 12.3574 28.5138C12.3442 28.2988 12.3289 28.1146 12.3113 27.961C12.2982 27.8075 12.285 27.7066 12.2718 27.6584C12.2543 27.6013 12.2236 27.5399 12.1797 27.4741C12.1446 27.4171 12.0942 27.3513 12.0284 27.2767C11.967 27.1977 11.888 27.11 11.7915 27.0135ZM13.1536 28.3098C13.1492 28.3537 13.147 28.3997 13.147 28.448C13.147 28.5401 13.1536 28.6585 13.1667 28.8033C13.1975 28.8779 13.2347 28.9393 13.2786 28.9875C13.3269 29.0358 13.3773 29.0731 13.43 29.0994C13.487 29.1257 13.544 29.1433 13.601 29.152C13.6581 29.1608 13.7151 29.1652 13.7721 29.1652C13.9037 29.1608 14.0419 29.1301 14.1867 29.0731C14.3797 28.9897 14.5157 28.8713 14.5946 28.7178C14.6736 28.5642 14.7153 28.4063 14.7197 28.244C14.7241 28.0817 14.6955 27.9325 14.6341 27.7965C14.5771 27.6605 14.5069 27.5684 14.4236 27.5202C14.3534 27.4895 14.2634 27.4763 14.1538 27.4807C14.0573 27.4851 13.9366 27.5092 13.7919 27.5531C13.6471 27.5969 13.4694 27.6759 13.2589 27.79C13.2369 27.8689 13.2194 27.9391 13.2062 28.0005C13.1931 28.0619 13.1821 28.1168 13.1733 28.165C13.1646 28.2177 13.158 28.2659 13.1536 28.3098Z" fill="black"/>
</svg>
