<svg width="13" height="17" viewBox="0 0 13 17" fill="none" xmlns="http://www.w3.org/2000/svg">
<path d="M6.47131 0.000201983C5.65226 0.00798048 4.81175 0.240123 4.37473 0.687595L4.56522 1.74514L3.76681 1.75057L3.92602 2.25408L4.47027 3.9756C4.53241 5.28648 4.10472 6.33633 3.46026 7.32106C2.66108 8.54212 1.51098 9.62718 0.592222 10.8321C0.10222 11.4748 -0.0761055 12.2238 0.0291009 12.947C0.134222 13.67 0.509014 14.3642 1.0801 14.9651C2.22224 16.1668 4.15847 17.0161 6.52036 16.9998C8.75906 16.9845 10.6769 16.107 11.8315 14.8957C12.4089 14.29 12.7988 13.5953 12.9168 12.8702C13.0346 12.145 12.8626 11.3904 12.3594 10.7508C11.4213 9.55842 10.2518 8.48938 9.43104 7.27937C8.75707 6.28573 8.30721 5.22158 8.36681 3.87632L9.01229 1.71507L8.26626 1.72009L8.43963 0.659659C8.08823 0.209259 7.29046 -0.00757651 6.47131 0.000201983ZM7.95086 2.50366L7.67186 3.43775C6.71805 3.88397 5.92218 3.85018 5.13813 3.46356L4.84142 2.52483L7.95086 2.50366ZM7.57933 4.32241C7.63316 5.63877 8.11829 6.74913 8.77263 7.71383C9.08503 8.1744 9.43405 8.60594 9.79315 9.02087C8.91327 8.78275 7.69971 8.62965 6.36611 8.62965C5.17192 8.62965 4.0745 8.7526 3.22615 8.94915C3.54334 8.56524 3.84968 8.16683 4.12575 7.74503C4.75957 6.77665 5.22359 5.66667 5.26038 4.3593C5.98614 4.59583 6.77167 4.59867 7.57933 4.32241ZM10.783 10.1252C10.9642 10.3253 11.1426 10.5243 11.3135 10.7226C11.0054 10.9204 10.6167 11.0785 10.1566 11.2132C9.16264 11.5043 7.83412 11.6754 6.36606 11.6754C4.89801 11.6754 3.56945 11.5042 2.5755 11.2132C2.20236 11.1039 1.87704 10.9789 1.6027 10.8302C1.77191 10.6265 1.94922 10.422 2.12933 10.2166C2.31465 10.3028 2.54062 10.3878 2.80088 10.464C3.68949 10.7242 4.96159 10.8939 6.36611 10.8939C7.77067 10.8939 9.04272 10.7242 9.93134 10.464C10.2836 10.3609 10.5738 10.2418 10.783 10.1252Z" fill="#D9626B"/>
<path d="M5.66656 12.9818C5.74667 13.0007 5.81835 13.0155 5.88159 13.026C5.94695 13.0345 6.00176 13.0408 6.04603 13.045C6.09873 13.0513 6.14511 13.0534 6.18517 13.0513C6.23576 13.0492 6.29901 13.0418 6.3749 13.0292C6.45079 13.0165 6.5309 13.0039 6.61523 12.9912C6.69955 12.9786 6.78282 12.9681 6.86504 12.9596C6.94726 12.9512 7.01893 12.9501 7.08007 12.9565C7.14121 12.9628 7.2055 12.9775 7.27296 13.0007C7.34042 13.0218 7.40367 13.0513 7.4627 13.0893C7.52172 13.1251 7.57232 13.1694 7.61448 13.2221C7.65875 13.2748 7.68616 13.3359 7.6967 13.4055C7.70724 13.473 7.70092 13.5457 7.67773 13.6237C7.65454 13.6996 7.61764 13.7744 7.56705 13.8482C7.51645 13.9199 7.45321 13.9863 7.37732 14.0474C7.30142 14.1086 7.2171 14.1581 7.12434 14.196C7.05056 14.2234 6.97045 14.2445 6.88401 14.2593C6.81023 14.2719 6.72379 14.2804 6.62471 14.2846C6.52774 14.2867 6.42444 14.2762 6.31482 14.253C6.30006 14.3141 6.29163 14.371 6.28952 14.4237C6.28952 14.4743 6.29163 14.5196 6.29584 14.5597C6.30217 14.6061 6.3106 14.6482 6.32114 14.6862C6.33379 14.7241 6.3496 14.7684 6.36857 14.819C6.38544 14.8612 6.40441 14.9128 6.42549 14.9739C6.44868 15.033 6.47609 15.0994 6.50771 15.1732C6.46976 15.1732 6.43287 15.1742 6.39703 15.1763C6.3612 15.1763 6.32852 15.1774 6.29901 15.1795C6.26528 15.1816 6.23365 15.1837 6.20414 15.1858C6.17041 15.1879 6.13246 15.1921 6.0903 15.1985C6.05446 15.2027 6.00914 15.209 5.95433 15.2174C5.90162 15.2259 5.84154 15.2364 5.77408 15.2491C5.81835 15.1858 5.85313 15.1278 5.87843 15.0751C5.90584 15.0203 5.92587 14.9729 5.93851 14.9328C5.95327 14.8865 5.96276 14.8443 5.96697 14.8063C5.96908 14.7747 5.96908 14.7189 5.96697 14.6387C5.96697 14.5586 5.96592 14.4659 5.96381 14.3605C5.9617 14.2551 5.95854 14.1444 5.95433 14.0284C5.95011 13.9125 5.94484 13.8039 5.93851 13.7027C5.93219 13.5994 5.92481 13.5109 5.91638 13.4371C5.91005 13.3633 5.90373 13.3148 5.89741 13.2917C5.88897 13.2642 5.87422 13.2347 5.85313 13.2031C5.83627 13.1757 5.81203 13.1441 5.7804 13.1082C5.75089 13.0703 5.71294 13.0281 5.66656 12.9818ZM6.32114 13.6047C6.31903 13.6258 6.31798 13.6479 6.31798 13.6711C6.31798 13.7154 6.32114 13.7723 6.32747 13.8419C6.34222 13.8777 6.36014 13.9072 6.38122 13.9304C6.40441 13.9536 6.42866 13.9715 6.45395 13.9842C6.48136 13.9968 6.50876 14.0053 6.53617 14.0095C6.56358 14.0137 6.59098 14.0158 6.61839 14.0158C6.68163 14.0137 6.74804 13.9989 6.81761 13.9715C6.91036 13.9315 6.97572 13.8746 7.01366 13.8008C7.05161 13.727 7.07164 13.6511 7.07375 13.5731C7.07585 13.4951 7.06215 13.4234 7.03264 13.3581C7.00523 13.2927 6.9715 13.2484 6.93145 13.2252C6.89772 13.2105 6.8545 13.2042 6.8018 13.2063C6.75542 13.2084 6.69744 13.22 6.62787 13.2411C6.55831 13.2621 6.47293 13.3001 6.37174 13.3549C6.3612 13.3928 6.35276 13.4266 6.34644 13.4561C6.34011 13.4856 6.33484 13.512 6.33063 13.5351C6.32641 13.5604 6.32325 13.5836 6.32114 13.6047Z" fill="white"/>
</svg>
