<svg width="34" height="34" viewBox="0 0 34 34" fill="none" xmlns="http://www.w3.org/2000/svg">
<path d="M11.1853 9.49646L11.1855 9.49748C11.2279 9.80754 10.9672 10.125 10.5984 10.125H9.50274C9.21843 10.125 8.98011 9.91909 8.93347 9.64654C8.73737 8.44306 8.1785 7.33337 7.30967 6.44986C5.88636 4.99486 4.99913 3.14494 4.75317 1.13649C4.71607 0.809113 4.98156 0.5 5.33906 0.5H6.42813C6.7283 0.5 6.96411 0.712928 7.00204 0.985361C7.20295 2.43431 7.86316 3.76752 8.89321 4.81903L8.89424 4.82008C10.1589 6.10352 10.9473 7.73006 11.1853 9.49646ZM18.6228 9.49646L18.623 9.49748C18.6654 9.80754 18.4047 10.125 18.0359 10.125H16.9402C16.6559 10.125 16.4176 9.91909 16.371 9.64654C16.1749 8.44306 15.616 7.33337 14.7472 6.44986C13.3234 4.99441 12.4361 3.1438 12.1904 1.13464L12.1902 1.13265C12.1499 0.813711 12.4132 0.5 12.7766 0.5H13.8656C14.1657 0.5 14.4014 0.712769 14.4395 0.985057C14.6404 2.43413 15.3006 3.76745 16.3307 4.81903L16.3317 4.82008C17.5964 6.10352 18.3848 7.73006 18.6228 9.49646ZM25.5 27.125H25V27.625C25 30.8684 22.3684 33.5 19.125 33.5H6.375C3.13161 33.5 0.5 30.8684 0.5 27.625V14.875C0.5 13.9758 1.22575 13.25 2.125 13.25H26.5625C30.3903 13.25 33.5 16.3597 33.5 20.1875C33.5 24.0153 30.3903 27.125 26.5625 27.125H25.5ZM25 23.375V23.875H25.5H26.5625C28.5984 23.875 30.25 22.2234 30.25 20.1875C30.25 18.1516 28.5984 16.5 26.5625 16.5H25.5H25V17V23.375Z" fill="white" stroke="#222222"/>
</svg>
