<svg width="22" height="22" viewBox="0 0 22 22" fill="none" xmlns="http://www.w3.org/2000/svg">
<path d="M4.44535 8.89171C4.44494 8.68395 4.5173 8.48261 4.64986 8.32264C4.7245 8.23261 4.81618 8.15818 4.91963 8.10363C5.02308 8.04908 5.13628 8.01547 5.25274 8.00473C5.3692 7.99399 5.48663 8.00634 5.59831 8.04105C5.71 8.07577 5.81373 8.13218 5.90358 8.20705L10.6695 12.1905L15.4443 8.34932C15.5353 8.27546 15.6399 8.2203 15.7523 8.18702C15.8646 8.15373 15.9824 8.14298 16.0989 8.15538C16.2154 8.16777 16.3283 8.20307 16.4312 8.25924C16.534 8.31541 16.6247 8.39135 16.6981 8.48269C16.779 8.57469 16.8401 8.68243 16.8774 8.79914C16.9147 8.91585 16.9275 9.03903 16.915 9.16093C16.9025 9.28282 16.8649 9.40082 16.8046 9.5075C16.7443 9.61419 16.6627 9.70726 16.5647 9.78087L11.2297 14.0755C11.0706 14.2063 10.871 14.2778 10.6651 14.2778C10.4591 14.2778 10.2595 14.2063 10.1004 14.0755L4.76545 9.62972C4.65784 9.54052 4.57278 9.42721 4.51717 9.29898C4.46155 9.17075 4.43695 9.03122 4.44535 8.89171Z" fill="#7A7A7A"/>
</svg>
