<svg width="61" height="41" viewBox="0 0 61 41" fill="none" xmlns="http://www.w3.org/2000/svg">
<path d="M57.4572 17.4602H4.09257C2.35351 17.4602 0.943726 18.87 0.943726 20.609V20.9405C0.943726 22.6796 2.35351 24.0894 4.09257 24.0894H57.4572C59.1963 24.0894 60.6061 22.6796 60.6061 20.9405V20.609C60.6061 18.87 59.1963 17.4602 57.4572 17.4602Z" fill="#DADADA"/>
<path d="M57.4572 34.0332H4.09257C2.35351 34.0332 0.943726 35.443 0.943726 37.1821V37.5135C0.943726 39.2526 2.35351 40.6624 4.09257 40.6624H57.4572C59.1963 40.6624 60.6061 39.2526 60.6061 37.5135V37.1821C60.6061 35.443 59.1963 34.0332 57.4572 34.0332Z" fill="#DADADA"/>
<path d="M57.4572 0.887451H4.09257C2.35351 0.887451 0.943726 2.29724 0.943726 4.0363V4.36775C0.943726 6.10681 2.35351 7.5166 4.09257 7.5166H57.4572C59.1963 7.5166 60.6061 6.10681 60.6061 4.36775V4.0363C60.6061 2.29724 59.1963 0.887451 57.4572 0.887451Z" fill="#DADADA"/>
</svg>
