<svg width="18" height="15" viewBox="0 0 18 15" fill="none" xmlns="http://www.w3.org/2000/svg">
<path d="M17.547 5.84901H15.7473V4.04931C15.7473 3.80185 15.5449 3.59939 15.2974 3.59939H14.3976C14.1501 3.59939 13.9476 3.80185 13.9476 4.04931V5.84901H12.1479C11.9005 5.84901 11.698 6.05147 11.698 6.29893V7.19878C11.698 7.44623 11.9005 7.6487 12.1479 7.6487H13.9476V9.44839C13.9476 9.69585 14.1501 9.89832 14.3976 9.89832H15.2974C15.5449 9.89832 15.7473 9.69585 15.7473 9.44839V7.6487H17.547C17.7945 7.6487 17.9969 7.44623 17.9969 7.19878V6.29893C17.9969 6.05147 17.7945 5.84901 17.547 5.84901ZM6.29893 7.19878C8.28703 7.19878 9.89832 5.58749 9.89832 3.59939C9.89832 1.61129 8.28703 0 6.29893 0C4.31083 0 2.69954 1.61129 2.69954 3.59939C2.69954 5.58749 4.31083 7.19878 6.29893 7.19878ZM8.8185 8.09862H8.34889C7.72462 8.38545 7.03006 8.54855 6.29893 8.54855C5.5678 8.54855 4.87605 8.38545 4.24897 8.09862H3.77936C1.69284 8.09862 0 9.79146 0 11.878V13.0478C0 13.793 0.604585 14.3976 1.34977 14.3976H11.2481C11.9933 14.3976 12.5979 13.793 12.5979 13.0478V11.878C12.5979 9.79146 10.905 8.09862 8.8185 8.09862Z" fill="current"/>
</svg>
