<svg width="34" height="34" viewBox="0 0 34 34" fill="none" xmlns="http://www.w3.org/2000/svg">
<path d="M17.0001 21.3637C19.4101 21.3637 21.3637 19.4101 21.3637 17.0001C21.3637 14.5901 19.4101 12.6365 17.0001 12.6365C14.5901 12.6365 12.6365 14.5901 12.6365 17.0001C12.6365 19.4101 14.5901 21.3637 17.0001 21.3637Z" stroke="black" stroke-width="1.5" stroke-linecap="round" stroke-linejoin="round"/>
<path d="M27.7636 21.3636C27.57 21.8024 27.5123 22.289 27.5978 22.7609C27.6834 23.2327 27.9083 23.6681 28.2436 24.0109L28.3309 24.0982C28.6014 24.3684 28.816 24.6892 28.9624 25.0424C29.1088 25.3955 29.1841 25.7741 29.1841 26.1564C29.1841 26.5387 29.1088 26.9172 28.9624 27.2704C28.816 27.6235 28.6014 27.9444 28.3309 28.2145C28.0607 28.485 27.7399 28.6996 27.3867 28.846C27.0336 28.9924 26.655 29.0677 26.2727 29.0677C25.8904 29.0677 25.5119 28.9924 25.1587 28.846C24.8056 28.6996 24.4847 28.485 24.2145 28.2145L24.1273 28.1273C23.7845 27.7919 23.3491 27.567 22.8772 27.4814C22.4054 27.3959 21.9187 27.4537 21.48 27.6473C21.0498 27.8317 20.6829 28.1378 20.4244 28.5281C20.166 28.9183 20.0273 29.3756 20.0255 29.8436V30.0909C20.0255 30.8624 19.719 31.6024 19.1734 32.1479C18.6278 32.6935 17.8879 33 17.1164 33C16.3448 33 15.6049 32.6935 15.0593 32.1479C14.5138 31.6024 14.2073 30.8624 14.2073 30.0909V29.96C14.196 29.4786 14.0402 29.0116 13.76 28.6199C13.4799 28.2282 13.0883 27.9299 12.6364 27.7636C12.1976 27.57 11.711 27.5123 11.2391 27.5978C10.7673 27.6834 10.3319 27.9083 9.98909 28.2436L9.90182 28.3309C9.63164 28.6014 9.3108 28.816 8.95764 28.9624C8.60449 29.1088 8.22594 29.1841 7.84364 29.1841C7.46134 29.1841 7.08279 29.1088 6.72963 28.9624C6.37647 28.816 6.05563 28.6014 5.78545 28.3309C5.51498 28.0607 5.30041 27.7399 5.15401 27.3867C5.00761 27.0336 4.93226 26.655 4.93226 26.2727C4.93226 25.8904 5.00761 25.5119 5.15401 25.1587C5.30041 24.8056 5.51498 24.4847 5.78545 24.2145L5.87273 24.1273C6.20805 23.7845 6.433 23.3491 6.51855 22.8772C6.60411 22.4054 6.54635 21.9187 6.35273 21.48C6.16834 21.0498 5.86219 20.6829 5.47195 20.4244C5.08171 20.166 4.62442 20.0273 4.15636 20.0255H3.90909C3.13755 20.0255 2.39761 19.719 1.85205 19.1734C1.30649 18.6278 1 17.8879 1 17.1164C1 16.3448 1.30649 15.6049 1.85205 15.0593C2.39761 14.5138 3.13755 14.2073 3.90909 14.2073H4.04C4.52145 14.196 4.98837 14.0402 5.38007 13.76C5.77177 13.4799 6.07013 13.0883 6.23636 12.6364C6.42999 12.1976 6.48774 11.711 6.40219 11.2391C6.31663 10.7673 6.09169 10.3319 5.75636 9.98909L5.66909 9.90182C5.39861 9.63164 5.18404 9.3108 5.03764 8.95764C4.89125 8.60449 4.81589 8.22594 4.81589 7.84364C4.81589 7.46134 4.89125 7.08279 5.03764 6.72963C5.18404 6.37647 5.39861 6.05563 5.66909 5.78545C5.93927 5.51498 6.26011 5.30041 6.61326 5.15401C6.96642 5.00761 7.34497 4.93226 7.72727 4.93226C8.10957 4.93226 8.48812 5.00761 8.84128 5.15401C9.19444 5.30041 9.51528 5.51498 9.78545 5.78545L9.87273 5.87273C10.2155 6.20805 10.6509 6.433 11.1228 6.51855C11.5946 6.60411 12.0813 6.54635 12.52 6.35273H12.6364C13.0666 6.16834 13.4335 5.86219 13.6919 5.47195C13.9504 5.08171 14.089 4.62442 14.0909 4.15636V3.90909C14.0909 3.13755 14.3974 2.39761 14.943 1.85205C15.4885 1.30649 16.2285 1 17 1C17.7715 1 18.5115 1.30649 19.057 1.85205C19.6026 2.39761 19.9091 3.13755 19.9091 3.90909V4.04C19.911 4.50805 20.0496 4.96535 20.3081 5.35559C20.5665 5.74583 20.9334 6.05198 21.3636 6.23636C21.8024 6.42999 22.289 6.48774 22.7609 6.40219C23.2327 6.31663 23.6681 6.09169 24.0109 5.75636L24.0982 5.66909C24.3684 5.39861 24.6892 5.18404 25.0424 5.03764C25.3955 4.89125 25.7741 4.81589 26.1564 4.81589C26.5387 4.81589 26.9172 4.89125 27.2704 5.03764C27.6235 5.18404 27.9444 5.39861 28.2145 5.66909C28.485 5.93927 28.6996 6.26011 28.846 6.61326C28.9924 6.96642 29.0677 7.34497 29.0677 7.72727C29.0677 8.10957 28.9924 8.48812 28.846 8.84128C28.6996 9.19444 28.485 9.51528 28.2145 9.78545L28.1273 9.87273C27.7919 10.2155 27.567 10.6509 27.4814 11.1228C27.3959 11.5946 27.4537 12.0813 27.6473 12.52V12.6364C27.8317 13.0666 28.1378 13.4335 28.5281 13.6919C28.9183 13.9504 29.3756 14.089 29.8436 14.0909H30.0909C30.8624 14.0909 31.6024 14.3974 32.1479 14.943C32.6935 15.4885 33 16.2285 33 17C33 17.7715 32.6935 18.5115 32.1479 19.057C31.6024 19.6026 30.8624 19.9091 30.0909 19.9091H29.96C29.4919 19.911 29.0347 20.0496 28.6444 20.3081C28.2542 20.5665 27.948 20.9334 27.7636 21.3636V21.3636Z" stroke="black" stroke-width="1.5" stroke-linecap="round" stroke-linejoin="round"/>
</svg>
