<svg width="10" height="19" viewBox="0 0 10 19" fill="none" xmlns="http://www.w3.org/2000/svg">
<path d="M6.14796 3.93478H3.85204V2.7299H2L5 0L8 2.7299H6.14796V3.93478Z" fill="#806C59"/>
<path fill-rule="evenodd" clip-rule="evenodd" d="M3.33781 5.56625C3.67125 5.19775 4.31253 5.00657 4.93745 5.00017C5.56244 4.99376 6.17112 5.17233 6.43923 5.54325L6.30695 6.41654L6.87615 6.41241L6.38367 8.19226C6.3382 9.30012 6.68143 10.1765 7.19565 10.9948C7.55969 11.574 8.01361 12.1141 8.47051 12.6576C8.79959 13.0491 9.13022 13.4425 9.42991 13.8536C9.81386 14.3803 9.9451 15.0018 9.85519 15.599C9.76519 16.1961 9.46765 16.7682 9.02717 17.267C8.14621 18.2646 6.68295 18.9872 4.97487 18.9998C3.17281 19.0132 1.69551 18.3138 0.824093 17.3242C0.388365 16.8294 0.102408 16.2577 0.0222032 15.6622C-0.0580666 15.0666 0.0779909 14.4498 0.45185 13.9206C0.744279 13.5066 1.06743 13.1098 1.38904 12.7149C1.83837 12.1632 2.28471 11.6152 2.64009 11.0291C3.1318 10.2182 3.45812 9.35357 3.41071 8.27402L2.99545 6.8563L2.87398 6.44165L3.48315 6.43717L3.33781 5.56625ZM5.85344 7.83109L6.06631 7.06184L3.69388 7.07927L3.92027 7.85234C4.51848 8.17073 5.12571 8.19856 5.85344 7.83109ZM6.6933 11.3526C6.19405 10.5581 5.82391 9.64369 5.78284 8.55963C5.16662 8.78714 4.56728 8.7848 4.01354 8.59001C3.98547 9.66667 3.63143 10.5808 3.14784 11.3783C2.93721 11.7256 2.70348 12.0537 2.46147 12.3699C3.10874 12.208 3.94605 12.1068 4.85718 12.1068C5.87469 12.1068 6.8006 12.2328 7.47193 12.4289C7.19794 12.0872 6.93165 11.7319 6.6933 11.3526ZM8.63193 13.8303C8.5015 13.667 8.36541 13.5032 8.22716 13.3384C8.06752 13.4344 7.84612 13.5325 7.57737 13.6174C6.89937 13.8316 5.92883 13.9715 4.85718 13.9715C3.78557 13.9715 2.81499 13.8316 2.137 13.6174C1.93843 13.5547 1.76602 13.4846 1.62462 13.4137C1.48721 13.5829 1.35193 13.7513 1.22282 13.919C1.43213 14.0415 1.68035 14.1444 1.96504 14.2344C2.7234 14.4741 3.73706 14.6151 4.85715 14.6151C5.97724 14.6151 6.99087 14.4741 7.74926 14.2344C8.10025 14.1234 8.39682 13.9932 8.63193 13.8303ZM4.35891 15.7155C4.26026 15.7134 4.13587 15.7102 3.98575 15.7059C4.03722 15.7359 4.08011 15.7627 4.11443 15.7863C4.14874 15.8099 4.17555 15.8303 4.19485 15.8474C4.21844 15.8689 4.23667 15.8871 4.24954 15.9021C4.27527 15.945 4.29779 16.0426 4.31709 16.1948C4.33639 16.3471 4.34068 16.5466 4.32996 16.7932C4.33211 16.8918 4.33211 16.9991 4.32996 17.1149C4.32782 17.2135 4.32353 17.3283 4.31709 17.4591C4.3128 17.5878 4.3053 17.725 4.29457 17.8709C4.41682 17.8558 4.52834 17.844 4.62913 17.8355C4.73207 17.8269 4.82108 17.8205 4.89614 17.8162C4.98192 17.8097 5.0602 17.8065 5.13097 17.8065C5.1996 17.8044 5.27466 17.8022 5.35615 17.8001C5.42478 17.7979 5.50413 17.7969 5.59421 17.7969C5.68428 17.7947 5.77971 17.7926 5.88051 17.7904C5.89552 17.6832 5.90732 17.5953 5.9159 17.5266C5.92662 17.4559 5.93413 17.4001 5.93842 17.3594C5.94485 17.3122 5.94807 17.2757 5.94807 17.25L5.95772 17.1471C5.96201 17.1084 5.96522 17.0581 5.96737 16.9959C5.97166 16.9315 5.97809 16.8511 5.98667 16.7546C5.9352 16.8704 5.88266 16.969 5.82904 17.0505C5.77757 17.132 5.73039 17.1996 5.6875 17.2532C5.63603 17.3154 5.58777 17.3669 5.54274 17.4076C5.48269 17.4569 5.41406 17.4923 5.33685 17.5138C5.25965 17.5352 5.18351 17.5481 5.10845 17.5524C5.03554 17.5545 4.97013 17.5502 4.91222 17.5395C4.85432 17.5266 4.81571 17.5106 4.79641 17.4913C4.7814 17.472 4.76853 17.4398 4.75781 17.3948C4.74709 17.3561 4.73851 17.3015 4.73207 17.2307C4.72779 17.1578 4.72886 17.0623 4.73529 16.9444C4.78891 16.9337 4.83287 16.9283 4.86718 16.9283C4.90364 16.9283 4.93367 16.9294 4.95726 16.9315C4.98299 16.9358 5.00337 16.9401 5.01838 16.9444C5.03125 16.9551 5.04626 16.9744 5.06342 17.0023C5.07843 17.0259 5.09559 17.0613 5.11489 17.1084C5.13633 17.1535 5.15992 17.2157 5.18566 17.295C5.18137 17.1792 5.17815 17.0838 5.17601 17.0087V16.8254V16.7031C5.17386 16.6752 5.17279 16.6377 5.17279 16.5905C5.17065 16.5498 5.16957 16.4972 5.16957 16.4329C5.16957 16.3664 5.16743 16.2838 5.16314 16.1852C5.13097 16.2753 5.10309 16.346 5.0795 16.3975C5.05805 16.449 5.0409 16.4897 5.02803 16.5198C5.01087 16.5541 4.99801 16.5777 4.98943 16.5905C4.9787 16.6012 4.96155 16.613 4.93796 16.6259C4.91651 16.6366 4.88756 16.6495 4.8511 16.6645C4.81679 16.6795 4.77068 16.6956 4.71277 16.7128C4.7235 16.5905 4.73315 16.4908 4.74172 16.4136C4.75245 16.3364 4.76317 16.2753 4.77389 16.2302C4.78462 16.1766 4.79641 16.1369 4.80928 16.1112C4.82429 16.0812 4.83823 16.0544 4.8511 16.0308C4.86611 16.005 4.88756 15.9825 4.91544 15.9632C4.94332 15.9439 4.98192 15.9289 5.03125 15.9182C5.08057 15.9075 5.1492 15.9 5.23713 15.8957C5.30361 15.8978 5.36688 15.915 5.42693 15.9471C5.4784 15.975 5.5288 16.019 5.57812 16.079C5.62959 16.1391 5.67034 16.227 5.70036 16.3428C5.71109 16.3064 5.71859 16.271 5.72288 16.2367C5.72717 16.2024 5.73146 16.1702 5.73575 16.1402C5.74004 16.1058 5.74326 16.0737 5.7454 16.0437C5.74755 16.0136 5.74862 15.9804 5.74862 15.9439C5.74862 15.9139 5.74647 15.8796 5.74218 15.841C5.74004 15.8002 5.73682 15.7584 5.73253 15.7155H4.6034H4.35891Z" fill="#806C59"/>
</svg>
