<svg width="14" height="14" viewBox="0 0 14 14" fill="none" xmlns="http://www.w3.org/2000/svg">
<circle cx="7" cy="7" r="7" fill="current"/>
<path d="M5.5593 10.0001V4.90918H7.37393C7.77 4.90918 8.09813 4.98127 8.35831 5.12544C8.61849 5.26962 8.81321 5.46683 8.94247 5.71706C9.07173 5.96564 9.13636 6.24571 9.13636 6.55726C9.13636 6.87047 9.0709 7.1522 8.93999 7.40243C8.81072 7.65101 8.61517 7.84822 8.35334 7.99405C8.09316 8.13823 7.76586 8.21032 7.37145 8.21032H6.12358V7.55904H7.30185C7.55208 7.55904 7.75509 7.51595 7.91087 7.42978C8.06664 7.34194 8.18099 7.22263 8.25391 7.07182C8.32682 6.92102 8.36328 6.7495 8.36328 6.55726C8.36328 6.36503 8.32682 6.19434 8.25391 6.04519C8.18099 5.89604 8.06581 5.77921 7.90838 5.69469C7.7526 5.61017 7.54711 5.56792 7.2919 5.56792H6.32741V10.0001H5.5593Z" fill="white"/>
</svg>
