<svg width="20" height="20" viewBox="0 0 40 25" fill="none" xmlns="http://www.w3.org/2000/svg">
<rect width="40" height="24.4444" rx="1" fill="#FAEFED"/>
<path d="M12.1889 5.78211V6.20211C12.1889 7.91322 9.93334 9.31322 7.44445 9.63989L7.92667 10.6821C10.8044 10.2466 13.34 8.58211 13.34 6.20211V5.78211H12.1889ZM12.7333 5.78211V6.20211C12.7333 8.58211 15.2689 10.2466 18.1311 10.6821L18.6289 9.63989C16.14 9.31322 13.8689 7.91322 13.8689 6.20211V5.78211H12.7333ZM7.83334 5.15989V6.20211H18.24V5.15989H7.83334ZM6.66667 11.6932V12.751H19.4067V11.6932H6.66667ZM12.4844 12.3466V15.5821H13.7756V12.3466H12.4844ZM8.28445 17.1532V18.211H17.9911V17.1532H8.28445ZM8.28445 14.2288V17.5577H9.56001V14.2288H8.28445Z" fill="#C16C65"/>
<path d="M31.1966 4.44434V18.5377H32.4877V4.44434H31.1966ZM21.7855 5.64211V15.1466H28.4121V5.64211H27.121V9.35989H23.061V5.64211H21.7855ZM23.061 10.3866H27.121V14.0888H23.061V10.3866Z" fill="#C16C65"/>
</svg>
