<svg width="13" height="14" viewBox="0 0 13 14" fill="none" xmlns="http://www.w3.org/2000/svg">
<path d="M1.29413 7.262V8.66H2.81813V9.11H1.29413V10.55H2.99813V11H0.748133V6.812H2.99813V7.262H1.29413ZM3.6203 8.906C3.6203 8.498 3.7123 8.132 3.8963 7.808C4.0803 7.48 4.3303 7.224 4.6463 7.04C4.9663 6.856 5.3203 6.764 5.7083 6.764C6.1643 6.764 6.5623 6.874 6.9023 7.094C7.2423 7.314 7.4903 7.626 7.6463 8.03H6.9923C6.8763 7.778 6.7083 7.584 6.4883 7.448C6.2723 7.312 6.0123 7.244 5.7083 7.244C5.4163 7.244 5.1543 7.312 4.9223 7.448C4.6903 7.584 4.5083 7.778 4.3763 8.03C4.2443 8.278 4.1783 8.57 4.1783 8.906C4.1783 9.238 4.2443 9.53 4.3763 9.782C4.5083 10.03 4.6903 10.222 4.9223 10.358C5.1543 10.494 5.4163 10.562 5.7083 10.562C6.0123 10.562 6.2723 10.496 6.4883 10.364C6.7083 10.228 6.8763 10.034 6.9923 9.782H7.6463C7.4903 10.182 7.2423 10.492 6.9023 10.712C6.5623 10.928 6.1643 11.036 5.7083 11.036C5.3203 11.036 4.9663 10.946 4.6463 10.766C4.3303 10.582 4.0803 10.328 3.8963 10.004C3.7123 9.68 3.6203 9.314 3.6203 8.906ZM10.3551 11.042C9.96707 11.042 9.61307 10.952 9.29307 10.772C8.97307 10.588 8.71907 10.334 8.53107 10.01C8.34707 9.682 8.25507 9.314 8.25507 8.906C8.25507 8.498 8.34707 8.132 8.53107 7.808C8.71907 7.48 8.97307 7.226 9.29307 7.046C9.61307 6.862 9.96707 6.77 10.3551 6.77C10.7471 6.77 11.1031 6.862 11.4231 7.046C11.7431 7.226 11.9951 7.478 12.1791 7.802C12.3631 8.126 12.4551 8.494 12.4551 8.906C12.4551 9.318 12.3631 9.686 12.1791 10.01C11.9951 10.334 11.7431 10.588 11.4231 10.772C11.1031 10.952 10.7471 11.042 10.3551 11.042ZM10.3551 10.568C10.6471 10.568 10.9091 10.5 11.1411 10.364C11.3771 10.228 11.5611 10.034 11.6931 9.782C11.8291 9.53 11.8971 9.238 11.8971 8.906C11.8971 8.57 11.8291 8.278 11.6931 8.03C11.5611 7.778 11.3791 7.584 11.1471 7.448C10.9151 7.312 10.6511 7.244 10.3551 7.244C10.0591 7.244 9.79507 7.312 9.56307 7.448C9.33107 7.584 9.14707 7.778 9.01107 8.03C8.87907 8.278 8.81307 8.57 8.81307 8.906C8.81307 9.238 8.87907 9.53 9.01107 9.782C9.14707 10.034 9.33107 10.228 9.56307 10.364C9.79907 10.5 10.0631 10.568 10.3551 10.568Z" fill="current"/>
<path d="M1.29413 7.262V7.062C1.18368 7.062 1.09413 7.15154 1.09413 7.262H1.29413ZM1.29413 8.66H1.09413C1.09413 8.77046 1.18368 8.86 1.29413 8.86V8.66ZM2.81813 8.66H3.01813C3.01813 8.54954 2.92859 8.46 2.81813 8.46V8.66ZM2.81813 9.11V9.31C2.92859 9.31 3.01813 9.22046 3.01813 9.11H2.81813ZM1.29413 9.11V8.91C1.18368 8.91 1.09413 8.99954 1.09413 9.11H1.29413ZM1.29413 10.55H1.09413C1.09413 10.6605 1.18368 10.75 1.29413 10.75V10.55ZM2.99813 10.55H3.19813C3.19813 10.4395 3.10859 10.35 2.99813 10.35V10.55ZM2.99813 11V11.2C3.10859 11.2 3.19813 11.1105 3.19813 11H2.99813ZM0.748133 11H0.548133C0.548133 11.1105 0.637676 11.2 0.748133 11.2V11ZM0.748133 6.812V6.612C0.637676 6.612 0.548133 6.70154 0.548133 6.812H0.748133ZM2.99813 6.812H3.19813C3.19813 6.70154 3.10859 6.612 2.99813 6.612V6.812ZM2.99813 7.262V7.462C3.10859 7.462 3.19813 7.37246 3.19813 7.262H2.99813ZM1.09413 7.262V8.66H1.49413V7.262H1.09413ZM1.29413 8.86H2.81813V8.46H1.29413V8.86ZM2.61813 8.66V9.11H3.01813V8.66H2.61813ZM2.81813 8.91H1.29413V9.31H2.81813V8.91ZM1.09413 9.11V10.55H1.49413V9.11H1.09413ZM1.29413 10.75H2.99813V10.35H1.29413V10.75ZM2.79813 10.55V11H3.19813V10.55H2.79813ZM2.99813 10.8H0.748133V11.2H2.99813V10.8ZM0.948133 11V6.812H0.548133V11H0.948133ZM0.748133 7.012H2.99813V6.612H0.748133V7.012ZM2.79813 6.812V7.262H3.19813V6.812H2.79813ZM2.99813 7.062H1.29413V7.462H2.99813V7.062ZM3.8963 7.808L4.07022 7.90677L4.07073 7.90585L3.8963 7.808ZM4.6463 7.04L4.54661 6.86662L4.54567 6.86716L4.6463 7.04ZM6.9023 7.094L7.01096 6.92609L7.01096 6.92609L6.9023 7.094ZM7.6463 8.03V8.23C7.71224 8.23 7.77395 8.1975 7.81124 8.14312C7.84854 8.08874 7.85663 8.01947 7.83288 7.95796L7.6463 8.03ZM6.9923 8.03L6.81063 8.11363C6.84328 8.18456 6.91422 8.23 6.9923 8.23V8.03ZM6.4883 7.448L6.38174 7.61725L6.38314 7.61812L6.4883 7.448ZM4.9223 7.448L5.02345 7.62054L5.02345 7.62054L4.9223 7.448ZM4.3763 8.03L4.55286 8.12397L4.55347 8.1228L4.3763 8.03ZM4.3763 9.782L4.19913 9.8748L4.19976 9.87597L4.3763 9.782ZM4.9223 10.358L5.02345 10.1855L5.02345 10.1855L4.9223 10.358ZM6.4883 10.364L6.5926 10.5347L6.59347 10.5341L6.4883 10.364ZM6.9923 9.782V9.582C6.91422 9.582 6.84328 9.62744 6.81063 9.69837L6.9923 9.782ZM7.6463 9.782L7.83264 9.85467C7.85664 9.79313 7.8487 9.7237 7.81143 9.66916C7.77416 9.61462 7.71236 9.582 7.6463 9.582V9.782ZM6.9023 10.712L7.00956 10.8808L7.01096 10.8799L6.9023 10.712ZM4.6463 10.766L4.54566 10.9389L4.54825 10.9403L4.6463 10.766ZM3.8963 10.004L4.07022 9.90523L3.8963 10.004ZM3.8203 8.906C3.8203 8.52925 3.90491 8.19785 4.07022 7.90676L3.72239 7.70923C3.5197 8.06615 3.4203 8.46675 3.4203 8.906H3.8203ZM4.07073 7.90585C4.23779 7.60805 4.4627 7.37834 4.74694 7.21283L4.54567 6.86716C4.19791 7.06966 3.92282 7.35195 3.72188 7.71015L4.07073 7.90585ZM4.746 7.21338C5.0341 7.04773 5.35343 6.964 5.7083 6.964V6.564C5.28718 6.564 4.89851 6.66427 4.54661 6.86662L4.746 7.21338ZM5.7083 6.964C6.13076 6.964 6.48999 7.06542 6.79365 7.26191L7.01096 6.92609C6.63462 6.68258 6.19785 6.564 5.7083 6.564V6.964ZM6.79365 7.26191C7.09569 7.45735 7.31782 7.73453 7.45973 8.10204L7.83288 7.95796C7.66279 7.51747 7.38892 7.17065 7.01096 6.92609L6.79365 7.26191ZM7.6463 7.83H6.9923V8.23H7.6463V7.83ZM7.17398 7.94637C7.04279 7.66136 6.84938 7.43608 6.59347 7.27788L6.38314 7.61812C6.56723 7.73192 6.70982 7.89464 6.81063 8.11363L7.17398 7.94637ZM6.59487 7.27875C6.34131 7.1191 6.04273 7.044 5.7083 7.044V7.444C5.98188 7.444 6.2033 7.5049 6.38174 7.61725L6.59487 7.27875ZM5.7083 7.044C5.3839 7.044 5.08644 7.11995 4.82116 7.27546L5.02345 7.62054C5.22217 7.50405 5.44871 7.444 5.7083 7.444V7.044ZM4.82116 7.27546C4.55495 7.43151 4.34746 7.65403 4.19914 7.9372L4.55347 8.1228C4.66915 7.90197 4.82565 7.73649 5.02345 7.62054L4.82116 7.27546ZM4.19976 7.93603C4.04961 8.21812 3.9783 8.54362 3.9783 8.906H4.3783C4.3783 8.59638 4.439 8.33788 4.55285 8.12397L4.19976 7.93603ZM3.9783 8.906C3.9783 9.26492 4.04982 9.58973 4.19914 9.8748L4.55347 9.6892C4.43879 9.47027 4.3783 9.21108 4.3783 8.906H3.9783ZM4.19976 9.87597C4.34833 10.1551 4.55578 10.375 4.82116 10.5305L5.02345 10.1855C4.82483 10.069 4.66828 9.9049 4.55285 9.68803L4.19976 9.87597ZM4.82116 10.5305C5.08644 10.686 5.3839 10.762 5.7083 10.762V10.362C5.44871 10.362 5.22217 10.302 5.02345 10.1855L4.82116 10.5305ZM5.7083 10.762C6.04167 10.762 6.3394 10.6894 6.59259 10.5347L6.38401 10.1933C6.20521 10.3026 5.98294 10.362 5.7083 10.362V10.762ZM6.59347 10.5341C6.84938 10.3759 7.04279 10.1506 7.17398 9.86563L6.81063 9.69837C6.70982 9.91736 6.56723 10.0801 6.38314 10.1939L6.59347 10.5341ZM6.9923 9.982H7.6463V9.582H6.9923V9.982ZM7.45997 9.70933C7.31825 10.0727 7.09622 10.3483 6.79365 10.5441L7.01096 10.8799C7.38839 10.6357 7.66236 10.2913 7.83264 9.85467L7.45997 9.70933ZM6.79506 10.5432C6.49121 10.7362 6.13148 10.836 5.7083 10.836V11.236C6.19713 11.236 6.6334 11.1198 7.00955 10.8808L6.79506 10.5432ZM5.7083 10.836C5.35263 10.836 5.03271 10.7539 4.74436 10.5917L4.54825 10.9403C4.8999 11.1381 5.28798 11.236 5.7083 11.236V10.836ZM4.74694 10.5932C4.46208 10.4273 4.23711 10.1991 4.07022 9.90523L3.72239 10.1028C3.9235 10.4569 4.19852 10.7367 4.54567 10.9388L4.74694 10.5932ZM4.07022 9.90523C3.90491 9.61415 3.8203 9.28275 3.8203 8.906H3.4203C3.4203 9.34525 3.5197 9.74585 3.72239 10.1028L4.07022 9.90523ZM9.29307 10.772L9.19337 10.9454L9.19502 10.9463L9.29307 10.772ZM8.53107 10.01L8.35662 10.1079L8.35808 10.1104L8.53107 10.01ZM8.53107 7.808L8.35755 7.70854L8.35716 7.70923L8.53107 7.808ZM9.29307 7.046L9.39113 7.22032L9.39276 7.21938L9.29307 7.046ZM11.4231 7.046L11.3234 7.21939L11.325 7.22031L11.4231 7.046ZM12.1791 7.802L12.353 7.70323L12.353 7.70323L12.1791 7.802ZM11.4231 10.772L11.5211 10.9463L11.5228 10.9454L11.4231 10.772ZM11.1411 10.364L11.0412 10.1907L11.0399 10.1915L11.1411 10.364ZM11.6931 9.782L11.5171 9.68701L11.5159 9.6892L11.6931 9.782ZM11.6931 8.03L11.5159 8.12282L11.5177 8.12617L11.6931 8.03ZM11.1471 7.448L11.0459 7.62054L11.0459 7.62054L11.1471 7.448ZM9.56307 7.448L9.66421 7.62054L9.66421 7.62054L9.56307 7.448ZM9.01107 8.03L8.83506 7.93501L8.83452 7.93603L9.01107 8.03ZM9.01107 9.782L8.83389 9.87481L8.83507 9.87699L9.01107 9.782ZM9.56307 10.364L9.46192 10.5365L9.46321 10.5373L9.56307 10.364ZM10.3551 10.842C9.9994 10.842 9.67947 10.7599 9.39112 10.5977L9.19502 10.9463C9.54667 11.1441 9.93474 11.242 10.3551 11.242V10.842ZM9.39276 10.5986C9.10364 10.4324 8.87473 10.2038 8.70406 9.90962L8.35808 10.1104C8.56341 10.4642 8.8425 10.7436 9.19338 10.9454L9.39276 10.5986ZM8.7055 9.91215C8.53967 9.61654 8.45507 9.28272 8.45507 8.906H8.05507C8.05507 9.34528 8.15447 9.74746 8.35664 10.1079L8.7055 9.91215ZM8.45507 8.906C8.45507 8.52925 8.53968 8.19785 8.70498 7.90676L8.35716 7.70923C8.15447 8.06615 8.05507 8.46675 8.05507 8.906H8.45507ZM8.70459 7.90746C8.87521 7.60978 9.10354 7.38208 9.39112 7.22031L9.19502 6.87168C8.84261 7.06992 8.56294 7.35022 8.35755 7.70854L8.70459 7.90746ZM9.39276 7.21938C9.68086 7.05373 10.0002 6.97 10.3551 6.97V6.57C9.93394 6.57 9.54528 6.67027 9.19338 6.87262L9.39276 7.21938ZM10.3551 6.97C10.7143 6.97 11.0356 7.05391 11.3234 7.21938L11.5228 6.87262C11.1705 6.67009 10.7798 6.57 10.3551 6.57V6.97ZM11.325 7.22031C11.6128 7.38222 11.8388 7.60788 12.0052 7.90076L12.353 7.70323C12.1513 7.34812 11.8733 7.06978 11.5211 6.87168L11.325 7.22031ZM12.0052 7.90076C12.1703 8.19156 12.2551 8.52487 12.2551 8.906H12.6551C12.6551 8.46312 12.5558 8.06044 12.353 7.70323L12.0052 7.90076ZM12.2551 8.906C12.2551 9.28712 12.1703 9.62044 12.0052 9.91123L12.353 10.1088C12.5558 9.75156 12.6551 9.34888 12.6551 8.906H12.2551ZM12.0052 9.91123C11.8386 10.2045 11.6121 10.4326 11.3234 10.5986L11.5228 10.9454C11.874 10.7434 12.1515 10.4635 12.353 10.1088L12.0052 9.91123ZM11.325 10.5977C11.037 10.7597 10.7151 10.842 10.3551 10.842V11.242C10.779 11.242 11.1692 11.1443 11.5211 10.9463L11.325 10.5977ZM10.3551 10.768C10.6795 10.768 10.9769 10.692 11.2422 10.5365L11.0399 10.1915C10.8412 10.308 10.6147 10.368 10.3551 10.368V10.768ZM11.2409 10.5373C11.5113 10.3815 11.7214 10.1589 11.8702 9.8748L11.5159 9.6892C11.4007 9.90915 11.2428 10.0745 11.0412 10.1907L11.2409 10.5373ZM11.8691 9.87699C12.0232 9.59146 12.0971 9.26584 12.0971 8.906H11.6971C11.6971 9.21016 11.635 9.46854 11.5171 9.68701L11.8691 9.87699ZM12.0971 8.906C12.0971 8.5427 12.0234 8.21639 11.8684 7.93383L11.5177 8.12617C11.6348 8.33961 11.6971 8.5973 11.6971 8.906H12.0971ZM11.8702 7.9372C11.7219 7.65403 11.5144 7.43151 11.2482 7.27546L11.0459 7.62054C11.2437 7.73649 11.4002 7.90197 11.5159 8.1228L11.8702 7.9372ZM11.2482 7.27546C10.9825 7.1197 10.6829 7.044 10.3551 7.044V7.444C10.6192 7.444 10.8476 7.5043 11.0459 7.62054L11.2482 7.27546ZM10.3551 7.044C10.0272 7.044 9.72763 7.1197 9.46193 7.27546L9.66421 7.62054C9.86251 7.5043 10.0909 7.444 10.3551 7.444V7.044ZM9.46193 7.27546C9.19628 7.43118 8.98728 7.65297 8.83507 7.93501L9.18707 8.12499C9.30686 7.90303 9.46586 7.73682 9.66421 7.62054L9.46193 7.27546ZM8.83452 7.93603C8.68438 8.21812 8.61307 8.54362 8.61307 8.906H9.01307C9.01307 8.59638 9.07376 8.33788 9.18762 8.12397L8.83452 7.93603ZM8.61307 8.906C8.61307 9.26492 8.68458 9.58973 8.8339 9.8748L9.18824 9.6892C9.07356 9.47027 9.01307 9.21108 9.01307 8.906H8.61307ZM8.83507 9.87699C8.98728 10.159 9.19628 10.3808 9.46193 10.5365L9.66421 10.1915C9.46586 10.0752 9.30686 9.90897 9.18707 9.68701L8.83507 9.87699ZM9.46321 10.5373C9.73177 10.692 10.0306 10.768 10.3551 10.768V10.368C10.0955 10.368 9.86637 10.308 9.66293 10.1907L9.46321 10.5373Z" fill="current"/>
<path d="M3.1717 1C2.71564 1 2.4847 1.26969 2.09445 1.79732C2.01074 1.9105 1.99795 1.99351 2.00024 2.05243C2.00292 2.12135 2.02907 2.2016 2.08325 2.29114C2.13176 2.37131 2.19344 2.44333 2.24987 2.5H2.43208C2.70197 2.5 2.92315 2.71418 2.93182 2.98393L3.09445 6.46786H2.09445L1.94747 3.48664C1.88313 3.47146 1.82205 3.44358 1.76798 3.40422L1.93734 3.1716C1.76793 3.40421 1.76798 3.40422 1.76798 3.40422L1.76648 3.40312L1.76461 3.40175L1.75982 3.39818L1.74617 3.3878C1.73537 3.37947 1.72116 3.36825 1.70423 3.3543C1.67048 3.3265 1.62519 3.28729 1.57394 3.23778C1.47333 3.14062 1.34017 2.99471 1.2277 2.80886C1.11547 2.6234 1.01218 2.37865 1.001 2.09132C0.989421 1.79399 1.07832 1.4895 1.29046 1.20268L1.32082 1.16156C1.66934 0.689157 2.17776 0 3.1717 0H9.8283C10.8222 0 11.3307 0.689158 11.6792 1.16156L11.7095 1.20268C11.9217 1.4895 12.0106 1.79399 11.999 2.09132C11.9878 2.37865 11.8845 2.6234 11.7723 2.80886C11.6598 2.99471 11.5267 3.14062 11.4261 3.23779C11.3748 3.28729 11.3295 3.3265 11.2958 3.3543C11.2788 3.36825 11.2646 3.37947 11.2538 3.3878L11.2402 3.39818L11.2354 3.40175L11.2335 3.40312L11.2324 3.40397C11.2324 3.40397 11.2321 3.40418 11.0627 3.17157L11.2324 3.40397C11.1783 3.44334 11.1169 3.47146 11.0525 3.48664L11 6.5L10.0005 6.46786L10.0682 2.98393C10.0769 2.71418 10.298 2.5 10.5679 2.5H10.7501C10.8066 2.44333 10.8682 2.37131 10.9168 2.29114C10.9709 2.2016 10.9971 2.12135 10.9998 2.05243C11.0021 1.99351 10.9893 1.9105 10.9056 1.79732C10.5153 1.26969 10.2844 1 9.8283 1H3.1717Z" fill="current"/>
<path d="M3.2252 11.287L3.28707 13H9.71493L9.7881 11.287L10.7876 11.3191L10.6989 13.5161C10.6902 13.7858 10.469 14 10.1991 14H2.80289C2.533 14 2.31182 13.7858 2.30314 13.5161L2.25118 11.287H2.73819H3.2252Z" fill="current"/>
</svg>
