<svg width="26" height="26" viewBox="0 0 26 26" fill="none" xmlns="http://www.w3.org/2000/svg">
<path d="M14.1245 7.27873L14.1244 7.27771C13.9457 5.95193 13.3542 4.73164 12.4052 3.76852L12.4041 3.76747C11.599 2.94557 11.0825 1.90288 10.9254 0.769432M14.1245 7.27873L11.4207 0.700781M14.1245 7.27873C14.1467 7.44035 14.0078 7.625 13.7922 7.625H12.9543C12.7949 7.625 12.6613 7.50964 12.635 7.35734C12.4811 6.41328 12.0425 5.54271 11.3612 4.84986M14.1245 7.27873L11.0043 5.2M10.9254 0.769432L11.4207 0.700781M10.9254 0.769432C10.9255 0.769533 10.9255 0.769635 10.9255 0.769737L11.4207 0.700781M10.9254 0.769432C10.9046 0.620575 10.7751 0.5 10.6031 0.5H9.77031C9.56012 0.5 9.4171 0.680899 9.43864 0.851403L9.43889 0.853385C9.62358 2.36412 10.2906 3.75535 11.3612 4.84986M11.4207 0.700781C11.3648 0.299609 11.0195 0 10.6031 0H9.77031C9.27266 0 8.88164 0.431641 8.94258 0.914062C9.14062 2.53398 9.85664 4.02695 11.0043 5.2M11.3612 4.84986C11.3611 4.8497 11.3609 4.84954 11.3608 4.84938L11.0043 5.2M11.3612 4.84986C11.3614 4.85002 11.3615 4.85018 11.3617 4.85034L11.0043 5.2M8.4369 7.27771L8.43704 7.27873C8.45916 7.44035 8.32034 7.625 8.10469 7.625H7.2668C7.10743 7.625 6.97376 7.50962 6.9475 7.3573C6.79356 6.41326 6.35502 5.5427 5.67373 4.84986C4.60357 3.75581 3.93665 2.3653 3.75162 0.855313C3.73166 0.676314 3.87843 0.5 4.08281 0.5H4.91563C5.08768 0.5 5.21723 0.62074 5.23798 0.769737C5.39514 1.90306 5.9116 2.94565 6.71665 3.76747L6.71768 3.76852C7.66671 4.73164 8.25825 5.95193 8.4369 7.27771ZM19.5 20.625H19V21.125C19 23.5403 17.0403 25.5 14.625 25.5H4.875C2.45974 25.5 0.5 23.5403 0.5 21.125V11.375C0.5 10.7523 1.00231 10.25 1.625 10.25H20.3125C23.1746 10.25 25.5 12.5754 25.5 15.4375C25.5 18.2996 23.1746 20.625 20.3125 20.625H19.5ZM19 17.875V18.375H19.5H20.3125C21.9343 18.375 23.25 17.0593 23.25 15.4375C23.25 13.8157 21.9343 12.5 20.3125 12.5H19.5H19V13V17.875Z" fill="white" stroke="#222222"/>
</svg>
