<svg width="18" height="15" viewBox="0 0 32 28" fill="none" xmlns="http://www.w3.org/2000/svg">
<path d="M14.268 1C15.0378 -0.333333 16.9623 -0.333334 17.7321 0.999999L31.5885 25C32.3583 26.3333 31.396 28 29.8564 28H2.14361C0.604009 28 -0.358243 26.3333 0.411558 25L14.268 1Z" fill="#D9626B"/>
<path d="M16.7972 10.6364L16.598 19.3658H14.6541L14.461 10.6364H16.7972ZM15.6261 23.1328C15.2598 23.1328 14.9459 23.004 14.6843 22.7464C14.4267 22.4889 14.298 22.175 14.298 21.8047C14.298 21.4425 14.4267 21.1326 14.6843 20.875C14.9459 20.6174 15.2598 20.4886 15.6261 20.4886C15.9843 20.4886 16.2942 20.6174 16.5558 20.875C16.8214 21.1326 16.9542 21.4425 16.9542 21.8047C16.9542 22.0502 16.8918 22.2736 16.7671 22.4748C16.6463 22.676 16.4853 22.837 16.2841 22.9577C16.0869 23.0745 15.8676 23.1328 15.6261 23.1328Z" fill="white"/>
</svg>
