<svg width="24" height="11" viewBox="0 0 24 11" fill="none" xmlns="http://www.w3.org/2000/svg">
<rect width="24" height="11" rx="1" fill="#FAEFED"/>
<path d="M3 2.68764V7.23841H5.99899V2.68764H3ZM5.41505 3.2053V6.72075H3.58394V3.2053H5.41505ZM7.36151 2V9H7.95986V2H7.36151Z" fill="#C36C63"/>
<path d="M9.24252 2.65673V3.18212H12.7245V2.65673H9.24252ZM9.13438 6.1181C10.2446 6.1181 11.7729 6.07947 13.0706 5.86313L13.0273 5.38411C11.7513 5.55408 10.2013 5.56954 9.06229 5.57726L9.13438 6.1181ZM9.88413 3.05077V5.68543H10.4609V3.05077H9.88413ZM11.499 3.05077V5.68543H12.0757V3.05077H11.499ZM13.5031 2.01545V7.16115H14.1015V2.01545H13.5031ZM13.914 4.13245V4.67329H15.0675V4.13245H13.914ZM10.0427 8.31236V8.83775H14.397V8.31236H10.0427ZM10.0427 6.66667V8.45144H10.6411V6.66667H10.0427Z" fill="#C36C63"/>
<path d="M20.4233 2.00773V8.99227H21V2.00773H20.4233ZM19.3924 4.77373V5.29912H20.6395V4.77373H19.3924ZM18.9815 2.15453V8.64459H19.551V2.15453H18.9815ZM15.6941 2.81126V7.12252H18.1812V2.81126H15.6941ZM17.6189 3.32119V6.61258H16.2564V3.32119H17.6189Z" fill="#C36C63"/>
</svg>
