<svg width="21" height="18" viewBox="0 0 21 18" fill="none" xmlns="http://www.w3.org/2000/svg">
<path d="M18.4128 1.2983C16.0912 -0.653852 12.5042 -0.360628 10.2829 1.90081C8.06165 -0.360628 4.47468 -0.657869 2.15299 1.2983C-0.867616 3.84091 -0.425772 7.98621 1.72721 10.1834L8.77262 17.3613C9.17429 17.771 9.71254 18 10.2829 18C10.8573 18 11.3915 17.7751 11.7932 17.3654L18.8386 10.1874C20.9876 7.99022 21.4375 3.84492 18.4128 1.2983ZM17.4649 8.82973L10.4195 16.0077C10.3231 16.1041 10.2428 16.1041 10.1463 16.0077L3.10095 8.82973C1.63483 7.33549 1.33759 4.50769 3.39417 2.77646C4.95669 1.46298 7.36675 1.6598 8.87705 3.19822L10.2829 4.63221L11.6888 3.19822C13.2071 1.65177 15.6172 1.46298 17.1717 2.77245C19.2242 4.50367 18.919 7.34754 17.4649 8.82973Z" fill="#A6A6A6"/>
</svg>
