<svg width="21" height="20" viewBox="0 0 21 20" fill="none" xmlns="http://www.w3.org/2000/svg">
<path d="M1.85714 13V17.2315C1.85714 18.2082 4.54343 19 7.85714 19C11.1709 19 13.8571 18.2082 13.8571 17.2315V13M7.85714 3.57143C4.07005 3.57143 1 4.33894 1 5.28571C1 6.23249 4.07005 7 7.85714 7M1 5.28571V9.57143C1 10.4396 4.07005 11.2857 7.85714 11.2857M13.8571 13C17.1344 13 19.8571 12.1539 19.8571 11.2857V2.71429M7.98901 2.71429V11.428M7.85714 7C7.85714 7.86819 10.6458 8.71429 13.9231 8.71429C17.2004 8.71429 19.8571 7.86819 19.8571 7M13.8571 13C13.8571 12.0532 11.1709 11.2857 7.85714 11.2857C4.54343 11.2857 1.85714 12.0532 1.85714 13C1.85714 13.9468 4.54343 14.7143 7.85714 14.7143C11.1709 14.7143 13.8571 13.9468 13.8571 13ZM19.8571 2.71429C19.8571 1.76751 17.2004 1 13.9231 1C10.6458 1 7.98901 1.76751 7.98901 2.71429C7.98901 3.66106 10.6458 4.42857 13.9231 4.42857C17.2004 4.42857 19.8571 3.66106 19.8571 2.71429Z" stroke="#536173" stroke-width="1.5"/>
</svg>
