<svg width="30" height="31" viewBox="0 0 26 27" fill="none" xmlns="http://www.w3.org/2000/svg">
<path d="M12.5443 9.63411C11.6595 9.63411 10.8309 9.97739 10.2035 10.6048C9.5791 11.2321 9.23286 12.0608 9.23286 12.9456C9.23286 13.8304 9.5791 14.6591 10.2035 15.2864C10.8309 15.9109 11.6595 16.2571 12.5443 16.2571C13.4292 16.2571 14.2578 15.9109 14.8852 15.2864C15.5096 14.6591 15.8558 13.8304 15.8558 12.9456C15.8558 12.0608 15.5096 11.2321 14.8852 10.6048C14.5788 10.296 14.214 10.0512 13.8122 9.88453C13.4103 9.7179 12.9794 9.63278 12.5443 9.63411V9.63411ZM24.7457 16.6033L22.8103 14.9491C22.902 14.3868 22.9494 13.8127 22.9494 13.2415C22.9494 12.6704 22.902 12.0933 22.8103 11.534L24.7457 9.87973C24.8919 9.75457 24.9965 9.58787 25.0457 9.4018C25.0948 9.21572 25.0862 9.01909 25.0209 8.83805L24.9943 8.7611C24.4616 7.27164 23.6635 5.89101 22.6386 4.6861L22.5854 4.62396C22.4609 4.47762 22.295 4.37243 22.1096 4.32225C21.9242 4.27206 21.7279 4.27923 21.5466 4.34282L19.1437 5.19807C18.2559 4.47007 17.2674 3.89596 16.1962 3.49645L15.7316 0.983978C15.6965 0.794706 15.6047 0.620579 15.4683 0.484732C15.3319 0.348885 15.1575 0.257748 14.968 0.22343L14.8881 0.208633C13.3493 -0.0695443 11.7276 -0.0695443 10.1887 0.208633L10.1088 0.22343C9.91941 0.257748 9.74493 0.348885 9.60855 0.484732C9.47218 0.620579 9.38036 0.794706 9.34531 0.983978L8.87774 3.50829C7.8166 3.91098 6.82809 4.4837 5.95096 5.20399L3.53022 4.34282C3.34901 4.27873 3.15258 4.2713 2.96705 4.32151C2.78151 4.37173 2.61564 4.47722 2.4915 4.62396L2.43823 4.6861C1.41516 5.8923 0.617265 7.27258 0.0825982 8.7611L0.0559642 8.83805C-0.0772058 9.20796 0.0322896 9.62227 0.331182 9.87973L2.29026 11.5518C2.19852 12.1081 2.15413 12.6763 2.15413 13.2386C2.15413 13.8068 2.19852 14.375 2.29026 14.9254L0.337101 16.5974C0.190897 16.7226 0.0862572 16.8893 0.0370954 17.0754C-0.0120665 17.2614 -0.00342087 17.4581 0.0618828 17.6391L0.0885168 17.716C0.624156 19.2046 1.4143 20.5807 2.44415 21.791L2.49741 21.8532C2.62187 21.9995 2.78774 22.1047 2.97316 22.1549C3.15859 22.2051 3.35487 22.1979 3.53614 22.1343L5.95687 21.2732C6.83875 21.9982 7.82125 22.5723 8.88365 22.9689L9.35123 25.4932C9.38628 25.6824 9.4781 25.8566 9.61447 25.9924C9.75085 26.1283 9.92533 26.2194 10.1147 26.2537L10.1946 26.2685C11.7486 26.5482 13.3401 26.5482 14.8941 26.2685L14.974 26.2537C15.1634 26.2194 15.3378 26.1283 15.4742 25.9924C15.6106 25.8566 15.7024 25.6824 15.7375 25.4932L16.2021 22.9807C17.2734 22.5782 18.2618 22.0071 19.1496 21.2791L21.5526 22.1343C21.7338 22.1984 21.9302 22.2059 22.1157 22.1556C22.3013 22.1054 22.4671 21.9999 22.5913 21.8532L22.6446 21.791C23.6744 20.5748 24.4645 19.2046 25.0002 17.716L25.0268 17.6391C25.1541 17.2721 25.0446 16.8608 24.7457 16.6033ZM12.5443 18.1481C9.67084 18.1481 7.34184 15.8191 7.34184 12.9456C7.34184 10.0721 9.67084 7.74309 12.5443 7.74309C15.4179 7.74309 17.7469 10.0721 17.7469 12.9456C17.7469 15.8191 15.4179 18.1481 12.5443 18.1481Z" fill="current"/>
</svg>
